<svg xmlns="http://www.w3.org/2000/svg" viewBox="0 0 483.231 304.868">
    <path d="M63.1406 303.6579H0v-6.6006l49.39-63.36H2.86v-7.04H60.61v6.71L11 296.6179H63.1406zM124.0811 295.2976c-6.93 7.37-15.62 9.57-23.43 9.57-18.92 0-30.8-12.7608-30.8-28.38 0-15.95 12.43-28.82 29.48-28.82 14.08 0 27.28 8.8 27.5 28.49h-48.73v.88c0 11.7695 8.8 20.57 22.55 20.57a26.8469 26.8469 0 0018.7-7.2607zm-45.1-25.52h39.2705c-2.53-11.44-11.11-14.85-18.7-14.85C90.751 254.9275 82.1709 259.5476 78.981 269.7771zM140.8 303.6579h-9.9v-.77l24.2-27.9394-22-25.3008v-.7695h9.46l18.04 21.45 18.04-21.45h9.46v.7695l-22 25.3008 24.2 27.9394v.77h-9.9l-19.8-23.7607zM251.6807 303.6579h-8.25V292.7673c-4.84 8.25-12.65 12.1006-21.78 12.1006-16.61 0-27.28-12.87-27.28-28.6006s10.67-28.6 27.28-28.6c9.13 0 16.94 3.85 21.78 12.1v-10.89h8.25zm-29.26-6.16c11.66 0 21.12-8.47 21.12-21.2305s-9.46-21.2295-21.12-21.2295c-12.43 0-19.8 9.46-19.8 21.2295C202.6206 287.8171 209.9907 297.4978 222.4209 297.4978zM296.23 247.6677a33.3884 33.3884 0 0119.36 6.4892l-3.9609 5.7208a25.9856 25.9856 0 00-15.18-4.84c-13.64 0-22.7705 9.0195-22.88 21.2295.1094 12.21 9.24 21.2305 22.88 21.2305a25.9856 25.9856 0 0015.18-4.84l3.9609 5.72a33.3836 33.3836 0 01-19.36 6.49c-16.83-.22-30.91-10.2305-30.91-28.6006S279.3994 247.8874 296.23 247.6677zM351.1191 247.6677a28.6009 28.6009 0 110 57.2 28.6 28.6 0 110-57.2zm0 49.83c11.33 0 20.57-9.46 20.57-21.12 0-11.7706-9.24-21.34-20.57-21.34-11.22 0-20.46 9.5693-20.46 21.34C330.6592 288.0378 339.8994 297.4978 351.1191 297.4978zM401.7188 262.0778c2.09-8.8007 7.92-14.41 16.17-14.41a11.7681 11.7681 0 014.51.88v8.14a11.3353 11.3353 0 00-5.0595-1.1c-7.37 0-15.62 6.38-15.62 27.17v20.9h-8.25v-54.78h8.25zM480.4805 295.2976c-6.9307 7.37-15.62 9.57-23.4307 9.57-18.92 0-30.8-12.7608-30.8-28.38 0-15.95 12.43-28.82 29.4805-28.82 14.08 0 27.2793 8.8 27.5 28.49H434.5v.88c0 11.7695 8.8 20.57 22.55 20.57a26.8455 26.8455 0 0018.7-7.2607zm-45.1006-25.52h39.27c-2.53-11.44-11.11-14.85-18.7-14.85C447.15 254.9275 438.57 259.5476 435.38 269.7771z"/>
    <path transform="rotate(41.729 329.706 287.594)" fill="#fff" d="M326.206 281.5H333.206V293.688H326.206z"/>
    <path d="M241.6138,181.0132c-9.2339,0-18.0364-31.46-20.7783-47.3193-33.19,12.22-49.2631,9.2454-51.3215,5.6939-4.6131-7.989,18.2045-31.3145,30.5508-41.6254-27.3964-22.8405-32.5175-38.23-30.5508-41.6254,4.5827-7.9126,35.248-.2215,51.3215,5.6939,6.198-35.8628,17.1046-47.3193,20.7783-47.3193,10.2345,0,18.8651,36.26,20.7784,47.3193,32.1584-11.8384,49.095-9.5471,51.3214-5.6939,4.6208,8.02-18.3,31.4062-30.5507,41.6254,27.3963,22.8405,32.5174,38.23,30.5507,41.6254-4.72,8.1762-36.5043-.2406-51.3214-5.6939C256.2553,169.2054,245.4327,181.0132,241.6138,181.0132Zm0-97.5714a14.3207,14.3207,0,1,0,14.3207,14.3206h0A14.3356,14.3356,0,0,0,241.6138,83.4418Z" fill="#b1ffff"/>
    <path d="M304.9226,97.7624c12.4418-12.22,29.9894-33.9266,21.355-48.8812s-36.1415-10.6431-53.0094-5.9459C268.9224,26.056,258.8826,0,241.6138,0s-27.2894,25.9681-31.6544,42.9353c-16.7914-4.6743-44.3749-9.0087-53.0094,5.9459s8.8559,36.6265,21.355,48.8812c-12.4456,12.22-29.9894,33.9266-21.355,48.8812s36.26,10.6126,53.0094,5.946c4.3459,16.8793,14.3856,42.9352,31.6544,42.9352s27.29-25.9681,31.6544-42.9352c16.7036,4.6513,44.3674,9.0239,53.0094-5.946S317.4217,110.0171,304.9226,97.7624Zm16.0621-45.8261c6.7288,11.6513-10.5706,31.91-20.5072,41.6254A211.8782,211.8782,0,0,0,278.71,76.3311a211.8531,211.8531,0,0,0-4.0251-27.45c13.06-3.6546,39.5442-8.6535,46.3035,3.0551Zm-79.3709,81.91a255.5744,255.5744,0,0,1-31.25-18.0441,255.5965,255.5965,0,0,1,0-36.0842,255.5938,255.5938,0,0,1,31.25-18.04,255.6052,255.6052,0,0,1,31.25,18.044,255.5979,255.5979,0,0,1,0,36.0843A255.5394,255.5394,0,0,1,241.6138,133.8467Zm30.5508-10.2613a200.2815,200.2815,0,0,1-3.3568,21.2939,200.2976,200.2976,0,0,1-20.1177-7.737A261.49,261.49,0,0,0,272.1646,123.5854Zm-37.6462,13.5569a200.3542,200.3542,0,0,1-20.1215,7.737,200.2338,200.2338,0,0,1-3.3338-21.2939A261.4173,261.4173,0,0,0,234.53,137.1423Zm-30.5507-25.823a200.2366,200.2366,0,0,1-16.761-13.5569,200.2567,200.2567,0,0,1,16.761-13.5569A261.4261,261.4261,0,0,0,203.9677,111.3193Zm7.0954-39.38A200.2812,200.2812,0,0,1,214.42,50.6455a200.3784,200.3784,0,0,1,20.1215,7.737A261.5352,261.5352,0,0,0,211.0631,71.9394Zm37.6461-13.5569a200.3218,200.3218,0,0,1,20.1177-7.737,200.2585,200.2585,0,0,1,3.3377,21.2939,261.5519,261.5519,0,0,0-23.4668-13.5569ZM279.26,84.2055a200.2553,200.2553,0,0,1,16.7609,13.5569A200.2352,200.2352,0,0,1,279.26,111.3193a267.4633,267.4633,0,0,0,0-27.1138ZM241.6138,6.11c13.4271,0,22.325,25.0057,25.8,38.57a211.8062,211.8062,0,0,0-25.8,10.2268,211.8,211.8,0,0,0-25.8-10.2268C219.2354,31.3374,228.1524,6.11,241.6138,6.11ZM162.2391,51.9363c6.7441-11.6819,33.1858-6.7288,46.3035-3.0551a211.8831,211.8831,0,0,0-4.0441,27.4537,211.881,211.881,0,0,0-21.7674,17.2306C172.8975,83.9306,155.51,63.5914,162.2391,51.9363Zm0,91.6523c-6.7288-11.6513,10.5706-31.91,20.5072-41.6255a211.87,211.87,0,0,0,21.7675,17.2307,211.8623,211.8623,0,0,0,4.0288,27.45C195.276,150.3555,168.9718,155.2437,162.2391,143.5886Zm79.3747,45.8261c-13.4538,0-22.3479-25.1089-25.8-38.57a211.8165,211.8165,0,0,0,25.8-10.2269,211.8229,211.8229,0,0,0,25.8,10.2269C263.9923,164.1874,255.0753,189.4147,241.6138,189.4147Zm79.3747-45.8261c-6.7288,11.6512-32.9146,6.8013-46.3035,3.055a211.8635,211.8635,0,0,0,4.0442-27.4537,211.8782,211.8782,0,0,0,21.7674-17.2306C310.33,111.5943,327.7173,131.9334,320.9885,143.5886Z" fill="#304ffe"/>
    <path d="M241.6138,82.2961A15.4663,15.4663,0,1,0,257.08,97.7624,15.466,15.466,0,0,0,241.6138,82.2961Zm0,24.8225a9.3562,9.3562,0,1,1,9.3562-9.3562h0A9.3677,9.3677,0,0,1,241.6138,107.1186Z" fill="#304ffe"/>
</svg>