<svg xmlns="http://www.w3.org/2000/svg" viewBox="0 0 720.074 171.889">
    <path d="M299.9837 123.84H236.8431v-6.6006l49.39-63.36h-46.53v-7.04h57.75v6.71l-49.61 63.251h52.1406zM360.9241 115.48c-6.93 7.37-15.62 9.57-23.43 9.57-18.9205 0-30.8-12.7607-30.8-28.38 0-15.95 12.43-28.82 29.48-28.82 14.08 0 27.28 8.8 27.5 28.49h-48.73v.88c0 11.77 8.8 20.57 22.55 20.57a26.847 26.847 0 0018.7-7.2608zm-45.1-25.52h39.2706c-2.53-11.44-11.11-14.85-18.7-14.85C327.5941 75.1094 319.014 79.73 315.824 89.959zM377.6434 123.84h-9.9v-.7706l24.2-27.9394-22-25.3008V69.06h9.46l18.04 21.45 18.04-21.45h9.46v.7695l-22 25.3008 24.2 27.9394v.7706h-9.9l-19.8-23.7608zM488.5238 123.84h-8.25V112.9492c-4.84 8.25-12.65 12.1006-21.78 12.1006-16.61 0-27.28-12.87-27.28-28.6006s10.67-28.6 27.28-28.6c9.13 0 16.94 3.85 21.78 12.1V69.06h8.25zm-29.26-6.16c11.66 0 21.12-8.47 21.12-21.23s-9.46-21.2295-21.12-21.2295c-12.43 0-19.8 9.46-19.8 21.23C439.4637 107.999 446.8338 117.68 459.264 117.68zM533.0726 67.85a33.388 33.388 0 0119.36 6.4893L548.472 80.06a25.9856 25.9856 0 00-15.18-4.84c-13.64 0-22.77 9.02-22.88 21.23.1094 12.21 9.24 21.23 22.88 21.23a25.9861 25.9861 0 0015.18-4.84l3.9609 5.72a33.3828 33.3828 0 01-19.36 6.49c-16.83-.22-30.91-10.2305-30.91-28.6006S516.2425 68.0693 533.0726 67.85zM587.9622 67.85a28.6009 28.6009 0 110 57.2 28.6 28.6 0 110-57.2zm0 49.83c11.33 0 20.57-9.46 20.57-21.12 0-11.77-9.24-21.34-20.57-21.34-11.22 0-20.46 9.5694-20.46 21.34C567.5023 108.22 576.7425 117.68 587.9622 117.68zM638.5618 82.26c2.09-8.8008 7.92-14.41 16.17-14.41a11.7681 11.7681 0 014.51.88v8.14a11.3346 11.3346 0 00-5.0595-1.1c-7.37 0-15.62 6.38-15.62 27.17v20.9h-8.25V69.06h8.25zM717.3236 115.48c-6.9307 7.37-15.62 9.57-23.4307 9.57-18.92 0-30.8-12.7607-30.8-28.38 0-15.95 12.43-28.82 29.4805-28.82 14.08 0 27.2793 8.8 27.5 28.49H671.3431v.88c0 11.77 8.8 20.57 22.55 20.57a26.8456 26.8456 0 0018.7-7.2608zM672.223 89.959h39.2705c-2.53-11.44-11.11-14.85-18.7-14.85C683.9935 75.1094 675.4134 79.73 672.223 89.959z"/>
    <path transform="rotate(41.729 566.55 107.776)" fill="#fff" d="M563.049 101.682H570.049V113.87H563.049z"/>
    <path d="M76.4571,159.1313c-8.1177,0-15.8561-27.6566-18.2665-41.599-29.1775,10.743-43.3079,8.1277-45.1175,5.0055-4.0555-7.0232,16.0038-27.529,26.8576-36.5935C15.8462,65.8649,11.3442,52.3354,13.0731,49.3509c4.0287-6.9562,30.987-.1948,45.1175,5.0055,5.4487-31.5274,15.0369-41.599,18.2665-41.599,8.9973,0,16.5846,31.8766,18.2665,41.599,28.271-10.4073,43.16-8.393,45.1174-5.0055,4.0623,7.05-16.0877,27.61-26.8576,36.5934,24.0846,20.0795,28.5866,33.609,26.8576,36.5935-4.1494,7.1878-32.0914-.2115-45.1174-5.0055C89.3286,148.7509,79.8143,159.1313,76.4571,159.1313Zm0-85.7765a12.59,12.59,0,1,0,12.59,12.59h0A12.6028,12.6028,0,0,0,76.4571,73.3548Z" fill="#b1ffff"/>
    <path d="M132.1128,85.9443c10.9377-10.743,26.3641-29.8253,18.7734-42.9721s-31.7725-9.3565-46.6013-5.2272C100.4644,22.9062,91.6383,0,76.4571,0S52.4665,22.829,48.6292,37.745c-14.7616-4.1092-39.0106-7.92-46.6013,5.2272S9.8133,75.1711,20.8014,85.9443C9.86,96.6874-5.5627,115.77,2.0279,128.9165s31.8767,9.33,46.6013,5.2272c3.8205,14.8388,12.6466,37.745,27.8279,37.745s23.99-22.829,27.8278-37.745c14.6844,4.0891,39.004,7.9331,46.6013-5.2272S143.1009,96.7176,132.1128,85.9443Zm14.12-40.2864c5.9153,10.2429-9.2928,28.0528-18.0282,36.5935a186.279,186.279,0,0,0-19.1361-15.1477A186.2267,186.2267,0,0,0,105.53,42.9722c11.4817-3.2129,34.7639-7.6074,40.7061,2.6857ZM76.4571,117.6665a224.67,224.67,0,0,1-27.472-15.8627,224.71,224.71,0,0,1,0-31.7222,224.6866,224.6866,0,0,1,27.472-15.8594,224.7169,224.7169,0,0,1,27.472,15.8627,224.71,224.71,0,0,1,0,31.7222A224.6417,224.6417,0,0,1,76.4571,117.6665Zm26.8576-9.0208a176.0413,176.0413,0,0,1-2.951,18.72,176.1014,176.1014,0,0,1-17.6857-6.8017A229.915,229.915,0,0,0,103.3147,108.6457ZM70.2194,120.5638A176.16,176.16,0,0,1,52.53,127.3655a176.0487,176.0487,0,0,1-2.9308-18.72,229.831,229.831,0,0,0,20.63,11.9181ZM43.3618,97.8624A176.0251,176.0251,0,0,1,28.627,85.9443a176.0441,176.0441,0,0,1,14.7348-11.918A229.8254,229.8254,0,0,0,43.3618,97.8624ZM49.6,63.243a176.0413,176.0413,0,0,1,2.951-18.72A176.1678,176.1678,0,0,1,70.24,51.3249,229.9153,229.9153,0,0,0,49.6,63.243ZM82.6948,51.3249a176.1014,176.1014,0,0,1,17.6857-6.8017,176.0425,176.0425,0,0,1,2.9342,18.72,229.8932,229.8932,0,0,0-20.63-11.9181Zm26.8576,22.7014a176.0426,176.0426,0,0,1,14.7347,11.918,176.0075,176.0075,0,0,1-14.7347,11.9181,235.122,235.122,0,0,0,0-23.8361ZM76.4571,5.3715c11.8039,0,19.6262,21.983,22.6812,33.9078a186.2027,186.2027,0,0,0-22.6812,8.99,186.1977,186.1977,0,0,0-22.6813-8.99C56.7839,27.5492,64.623,5.3715,76.4571,5.3715ZM6.6777,45.6579c5.9288-10.27,29.174-5.9154,40.706-2.6857a186.28,186.28,0,0,0-3.5553,24.1349,186.2613,186.2613,0,0,0-19.136,15.1477C16.0476,73.7846.7623,55.9041,6.6777,45.6579Zm0,80.5729C.7623,115.9879,15.97,98.178,24.7058,89.6373A186.279,186.279,0,0,0,43.8419,104.785a186.2512,186.2512,0,0,0,3.5418,24.1315C35.7208,132.18,12.5964,136.4769,6.6777,126.2308Zm69.7794,40.2864c-11.8274,0-19.6464-22.0736-22.6813-33.9078a186.1977,186.1977,0,0,0,22.6813-8.99,186.2027,186.2027,0,0,0,22.6812,8.99C96.13,144.34,88.2912,166.5172,76.4571,166.5172Zm69.7794-40.2864c-5.9154,10.2428-28.9357,5.9791-40.7061,2.6857a186.2458,186.2458,0,0,0,3.5553-24.1349,186.2653,186.2653,0,0,0,19.1361-15.1477C136.8666,98.1041,152.1519,115.9846,146.2365,126.2308Z" fill="#304ffe"/>
    <path d="M76.4571,72.3477A13.5967,13.5967,0,1,0,90.0538,85.9443,13.5965,13.5965,0,0,0,76.4571,72.3477Zm0,21.8218a8.2252,8.2252,0,1,1,8.2251-8.2252h0A8.2352,8.2352,0,0,1,76.4571,94.17Z" fill="#304ffe"/>
</svg>