<svg xmlns="http://www.w3.org/2000/svg" width="24" height="20" viewBox="0 0 24 20">
    <path d="M21.889 0C23.055 0 24 .926 24 2.069v15.862C24 19.074 23.055 20 21.889 20H2.11C.945 20 0 19.074 0 17.931V2.069C0 .926.945 0 2.111 0H21.89zM22 8H2v9.998h20V8zm-9 2l-.001 1.999L15 12v2l-2.001-.001L13 16h-2l-.001-2.001L9 14v-2l1.999-.001L11 10h2zm9-8H2v4h20V2zM4.5 3c.552 0 1 .448 1 1s-.448 1-1 1-1-.448-1-1 .448-1 1-1zM7 3c.552 0 1 .448 1 1s-.448 1-1 1-1-.448-1-1 .448-1 1-1zm2.5 0c.552 0 1 .448 1 1s-.448 1-1 1-1-.448-1-1 .448-1 1-1z"/>
</svg>
