<svg xmlns="http://www.w3.org/2000/svg" xmlns:xlink="http://www.w3.org/1999/xlink" width="272" height="153" viewBox="0 0 272 153">
    <defs>
        <path id="prefix__b" d="M115.949 63.033l-.311.578-.594.112c-.031.008-.05.036-.042.067.002.01.009.022.015.029l.408.458-.118.658c-.006.032.015.059.047.064.012.002.026-.002.037-.007l.609-.381.611.382c.03.015.06.003.073-.016.013-.019.011-.037.01-.05l-.111-.65.4-.457c.01-.01.023-.032.014-.06-.008-.029-.04-.037-.041-.038l-.599-.111-.307-.578c-.02-.033-.046-.034-.052-.033-.007 0-.029 0-.05.033z"/>
        <path id="prefix__c" d="M112.949 63.033l-.311.578-.594.112c-.031.008-.05.036-.042.067.002.01.009.022.015.029l.408.458-.118.658c-.006.032.015.059.047.064.012.002.026-.002.037-.007l.609-.381.611.382c.03.015.06.003.073-.016.013-.019.011-.037.01-.05l-.111-.65.4-.457c.01-.01.023-.032.014-.06-.008-.029-.04-.037-.041-.038l-.599-.111-.307-.578c-.02-.033-.046-.034-.052-.033-.007 0-.029 0-.05.033z"/>
        <path id="prefix__d" d="M115.949 88.533l-.311.578-.594.112c-.031.008-.05.036-.042.067.002.01.009.022.015.029l.408.458-.118.658c-.006.032.015.059.047.064.012.002.026-.002.037-.007l.609-.381.611.382c.03.015.06.003.073-.016.013-.019.011-.037.01-.05l-.111-.65.4-.457c.01-.01.023-.032.014-.06-.008-.029-.04-.037-.041-.038l-.599-.111-.307-.578c-.02-.033-.046-.034-.052-.033-.007 0-.029 0-.05.033z"/>
        <path id="prefix__e" d="M112.949 88.533l-.311.578-.594.112c-.031.008-.05.036-.042.067.002.01.009.022.015.029l.408.458-.118.658c-.006.032.015.059.047.064.012.002.026-.002.037-.007l.609-.381.611.382c.03.015.06.003.073-.016.013-.019.011-.037.01-.05l-.111-.65.4-.457c.01-.01.023-.032.014-.06-.008-.029-.04-.037-.041-.038l-.599-.111-.307-.578c-.02-.033-.046-.034-.052-.033-.007 0-.029 0-.05.033z"/>
        <path id="prefix__f" d="M115.949 114.033l-.311.578-.594.112c-.031.008-.05.036-.042.067.002.01.009.022.015.029l.408.458-.118.658c-.006.032.015.059.047.064.012.002.026-.002.037-.007l.609-.381.611.382c.03.015.06.003.073-.016.013-.019.011-.037.01-.05l-.111-.65.4-.457c.01-.01.023-.032.014-.06-.008-.029-.04-.037-.041-.038l-.599-.111-.307-.578c-.02-.033-.046-.034-.052-.033-.007 0-.029 0-.05.033z"/>
        <path id="prefix__g" d="M112.949 114.033l-.311.578-.594.112c-.031.008-.05.036-.042.067.002.01.009.022.015.029l.408.458-.118.658c-.006.032.015.059.047.064.012.002.026-.002.037-.007l.609-.381.611.382c.03.015.06.003.073-.016.013-.019.011-.037.01-.05l-.111-.65.4-.457c.01-.01.023-.032.014-.06-.008-.029-.04-.037-.041-.038l-.599-.111-.307-.578c-.02-.033-.046-.034-.052-.033-.007 0-.029 0-.05.033z"/>
        <linearGradient id="prefix__a" x1="50%" x2="50%" y1=".185%" y2="100%">
            <stop offset="0%" stop-color="#FFF"/>
            <stop offset="100%" stop-color="#444248"/>
        </linearGradient>
        <linearGradient id="prefix__h" x1="48.198%" x2="0%" y1="100%" y2="100%">
            <stop offset="0%" stop-color="#D6D6D8"/>
            <stop offset="100%" stop-color="#262628"/>
        </linearGradient>
        <linearGradient id="prefix__i" x1=".367%" x2="100%" y1="50%" y2="50%">
            <stop offset="0%" stop-color="#727276"/>
            <stop offset="21.265%" stop-color="#E2E2E3"/>
            <stop offset="78.017%" stop-color="#E2E2E3"/>
            <stop offset="100%" stop-color="#727276"/>
        </linearGradient>
    </defs>
    <g fill="none" fill-rule="evenodd">
        <path fill="url(#prefix__a)" d="M16 150.48h254c-6.66.796-11.372 1.305-14.137 1.527-2.766.222-6.258.38-10.475.472H40.612c-3.183.08-7.094-.069-11.73-.446-4.638-.376-8.931-.894-12.882-1.554z" transform="matrix(1 0 0 -1 0 302.98)"/>
        <g transform="translate(14)">
            <path fill="#74737E" d="M32 0h194c4.97 0 9 4.03 9 9v132c0 4.97-4.03 9-9 9H32c-4.97 0-9-4.03-9-9V9c0-4.97 4.03-9 9-9z"/>
            <path fill="#FFF" d="M29 9L229 9 229 139 29 139z"/>
            <circle cx="116" cy="57" r="5" fill="#C6E0FF"/>
            <path fill="#428EE6" d="M116 52c2.761 0 5 2.239 5 5 0 1.636-.786 3.089-2 4.001.002-.21-.025-.435-.08-.675-.216-.946-1.79-1.326-2.923-1.326-1.134 0-2.665.335-2.926 1.324-.029.098-.052.343-.071.733l.003-.055C111.787 60.09 111 58.637 111 57c0-2.761 2.239-5 5-5zm0 3c-.828 0-1.5.672-1.5 1.5s.672 1.5 1.5 1.5 1.5-.672 1.5-1.5-.672-1.5-1.5-1.5z"/>
            <use fill="#FA9F00" fill-rule="nonzero" xlink:href="#prefix__b"/>
            <path fill="#FA9F00" fill-rule="nonzero" d="M118.949 63.033l-.311.578-.594.112c-.031.008-.05.036-.042.067.002.01.009.022.015.029l.408.458-.118.658c-.006.032.015.059.047.064.012.002.026-.002.037-.007l.609-.381.611.382c.03.015.06.003.073-.016.013-.019.011-.037.01-.05l-.111-.65.4-.457c.01-.01.023-.032.014-.06-.008-.029-.04-.037-.041-.038l-.599-.111-.307-.578c-.02-.033-.046-.034-.052-.033-.007 0-.029 0-.05.033z"/>
            <use fill="#FA9F00" fill-rule="nonzero" xlink:href="#prefix__c"/>
            <rect width="12" height="3" x="126" y="57" fill="#9E9DA6" rx=".5"/>
            <rect width="9" height="2" x="131.5" y="67.5" fill="#FFF" stroke="#D4D6DE" rx="1"/>
            <rect width="4" height="2" x="125.5" y="67.5" fill="#FFF" stroke="#D4D6DE" rx="1"/>
            <rect width="3" height="3" x="126" y="62" fill="#C0C0C4" rx=".5"/>
            <rect width="28" height="3" x="131" y="62" fill="#C0C0C4" rx=".5"/>
            <rect width="1" height="3" x="198" y="67" fill="#D4D6DE" rx=".5"/>
            <rect width="20" height="3" x="126" y="52" fill="#80B8F8" rx=".5"/>
            <path fill="#D4D6DE" d="M108 48H202V49H108z" transform="matrix(1 0 0 -1 0 96.5)"/>
            <path fill="#D4D6DE" d="M108 73.5H202V74.5H108z" transform="matrix(1 0 0 -1 0 147.5)"/>
            <circle cx="116" cy="82.5" r="5" fill="#C6E0FF"/>
            <path fill="#428EE6" d="M116 77.5c2.761 0 5 2.239 5 5 0 1.636-.786 3.089-2 4.001.002-.21-.025-.435-.08-.675-.216-.946-1.79-1.326-2.923-1.326-1.134 0-2.665.335-2.926 1.324-.029.098-.052.343-.071.733l.003-.055C111.787 85.59 111 84.137 111 82.5c0-2.761 2.239-5 5-5zm0 3c-.828 0-1.5.672-1.5 1.5s.672 1.5 1.5 1.5 1.5-.672 1.5-1.5-.672-1.5-1.5-1.5z"/>
            <use fill="#FA9F00" fill-rule="nonzero" xlink:href="#prefix__d"/>
            <path fill="#FA9F00" fill-rule="nonzero" d="M118.949 88.533l-.311.578-.594.112c-.031.008-.05.036-.042.067.002.01.009.022.015.029l.408.458-.118.658c-.006.032.015.059.047.064.012.002.026-.002.037-.007l.609-.381.611.382c.03.015.06.003.073-.016.013-.019.011-.037.01-.05l-.111-.65.4-.457c.01-.01.023-.032.014-.06-.008-.029-.04-.037-.041-.038l-.599-.111-.307-.578c-.02-.033-.046-.034-.052-.033-.007 0-.029 0-.05.033z"/>
            <use fill="#FA9F00" fill-rule="nonzero" xlink:href="#prefix__e"/>
            <rect width="12" height="3" x="126" y="82.5" fill="#9E9DA6" rx=".5"/>
            <rect width="9" height="2" x="131.5" y="93" fill="#FFF" stroke="#D4D6DE" rx="1"/>
            <rect width="4" height="2" x="125.5" y="93" fill="#FFF" stroke="#D4D6DE" rx="1"/>
            <rect width="3" height="3" x="126" y="87.5" fill="#C0C0C4" rx=".5"/>
            <rect width="28" height="3" x="131" y="87.5" fill="#C0C0C4" rx=".5"/>
            <rect width="1" height="3" x="198" y="92.5" fill="#D4D6DE" rx=".5"/>
            <rect width="20" height="3" x="126" y="77.5" fill="#80B8F8" rx=".5"/>
            <path fill="#D4D6DE" d="M108 73.5H202V74.5H108z" transform="matrix(1 0 0 -1 0 147.5)"/>
            <path fill="#D4D6DE" d="M108 99H202V100H108z" transform="matrix(1 0 0 -1 0 198.5)"/>
            <circle cx="116" cy="108" r="5" fill="#C6E0FF"/>
            <path fill="#428EE6" d="M116 103c2.761 0 5 2.239 5 5 0 1.636-.786 3.089-2 4.001.002-.21-.025-.435-.08-.675-.216-.946-1.79-1.326-2.923-1.326-1.134 0-2.665.335-2.926 1.324-.029.098-.052.343-.071.733l.003-.055C111.787 111.09 111 109.637 111 108c0-2.761 2.239-5 5-5zm0 3c-.828 0-1.5.672-1.5 1.5s.672 1.5 1.5 1.5 1.5-.672 1.5-1.5-.672-1.5-1.5-1.5z"/>
            <use fill="#FA9F00" fill-rule="nonzero" xlink:href="#prefix__f"/>
            <path fill="#FA9F00" fill-rule="nonzero" d="M118.949 114.033l-.311.578-.594.112c-.031.008-.05.036-.042.067.002.01.009.022.015.029l.408.458-.118.658c-.006.032.015.059.047.064.012.002.026-.002.037-.007l.609-.381.611.382c.03.015.06.003.073-.016.013-.019.011-.037.01-.05l-.111-.65.4-.457c.01-.01.023-.032.014-.06-.008-.029-.04-.037-.041-.038l-.599-.111-.307-.578c-.02-.033-.046-.034-.052-.033-.007 0-.029 0-.05.033z"/>
            <use fill="#FA9F00" fill-rule="nonzero" xlink:href="#prefix__g"/>
            <rect width="12" height="3" x="126" y="108" fill="#9E9DA6" rx=".5"/>
            <rect width="9" height="2" x="131.5" y="118.5" fill="#FFF" stroke="#D4D6DE" rx="1"/>
            <rect width="4" height="2" x="125.5" y="118.5" fill="#FFF" stroke="#D4D6DE" rx="1"/>
            <rect width="3" height="3" x="126" y="113" fill="#C0C0C4" rx=".5"/>
            <rect width="28" height="3" x="131" y="113" fill="#C0C0C4" rx=".5"/>
            <rect width="1" height="3" x="198" y="118" fill="#D4D6DE" rx=".5"/>
            <rect width="20" height="3" x="126" y="103" fill="#80B8F8" rx=".5"/>
            <path fill="#D4D6DE" d="M108 99H202V100H108z" transform="matrix(1 0 0 -1 0 198.5)"/>
            <path fill="#D4D6DE" d="M108 124.5H202V125.5H108z" transform="matrix(1 0 0 -1 0 249.5)"/>
            <circle cx="116" cy="133.5" r="5" fill="#C6E0FF"/>
            <path fill="#428EE6" d="M116 128.5c2.761 0 5 2.239 5 5 0 1.636-.786 3.089-2 4.001.002-.21-.025-.435-.08-.675-.216-.946-1.79-1.326-2.923-1.326-1.134 0-2.665.335-2.926 1.324-.029.098-.052.343-.071.733l.003-.055c-1.216-.912-2.003-2.365-2.003-4.002 0-2.761 2.239-5 5-5zm0 3c-.828 0-1.5.672-1.5 1.5s.672 1.5 1.5 1.5 1.5-.672 1.5-1.5-.672-1.5-1.5-1.5z"/>
            <rect width="12" height="3" x="126" y="133.5" fill="#9E9DA6" rx=".5"/>
            <rect width="20" height="3" x="126" y="128.5" fill="#80B8F8" rx=".5"/>
            <path fill="#D4D6DE" d="M108 124.5H202V125.5H108z" transform="matrix(1 0 0 -1 0 249.5)"/>
            <path fill="#D4D6DE" fill-rule="nonzero" d="M96 21c1.105 0 2 .895 2 2v14c0 1.105-.895 2-2 2H58c-1.105 0-2-.895-2-2V23c0-1.105.895-2 2-2h38zm0 1H58c-.513 0-.936.386-.993.883L57 23v14c0 .513.386.936.883.993L58 38h38c.513 0 .936-.386.993-.883L97 37V23c0-.513-.386-.936-.883-.993L96 22z"/>
            <path fill="#428EE6" d="M59 26H81V29H59z"/>
            <rect width="7" height="3" x="88" y="26" fill="#C6E0FF" rx="1.5"/>
            <rect width="7" height="3" x="88" y="31" fill="#C6E0FF" rx="1.5"/>
            <rect width="32" height="5" x="108" y="21" fill="#74737E" rx="1"/>
            <path fill="#428EE6" d="M125 31.5c1.105 0 2 .895 2 2s-.895 2-2 2-2-.895-2-2 .895-2 2-2zm-4 .5v3h-10v-3h10z"/>
            <path fill="#C0C0C4" d="M145 31.5c1.105 0 2 .895 2 2s-.895 2-2 2-2-.895-2-2 .895-2 2-2zm-4 .5v3h-10v-3h10zM165 31.5c1.105 0 2 .895 2 2s-.895 2-2 2-2-.895-2-2 .895-2 2-2zm-4 .5v3h-10v-3h10z"/>
            <rect width="38" height="4" x="59" y="48" fill="#74737E" rx=".5"/>
            <rect width="38" height="4" x="59" y="83" fill="#74737E" rx=".5"/>
            <rect width="38" height="4" x="59" y="111" fill="#74737E" rx=".5"/>
            <path fill="#C0C0C4" d="M61 70c1.105 0 2 .895 2 2s-.895 2-2 2-2-.895-2-2 .895-2 2-2zm36 .5v3H65v-3h32zM61 98c1.105 0 2 .895 2 2s-.895 2-2 2-2-.895-2-2 .895-2 2-2zm36 .5v3H65v-3h32z"/>
            <path fill="#428EE6" d="M61 56c1.105 0 2 .895 2 2s-.895 2-2 2-2-.895-2-2 .895-2 2-2zm-4 0v4h-1v-4h1zm40 .5v3H65v-3h32z"/>
            <path fill="#C0C0C4" d="M61 63c1.105 0 2 .895 2 2s-.895 2-2 2-2-.895-2-2 .895-2 2-2zm36 .5v3H65v-3h32zM61 91c1.105 0 2 .895 2 2s-.895 2-2 2-2-.895-2-2 .895-2 2-2zm36 .5v3H65v-3h32zM61 119c1.105 0 2 .895 2 2s-.895 2-2 2-2-.895-2-2 .895-2 2-2zm36 .5v3H65v-3h32z"/>
            <rect width="10" height="3" x="111" y="42" fill="#E1E3EB" rx="1.5"/>
            <rect width="10" height="3" x="123" y="42" fill="#E1E3EB" rx="1.5"/>
            <rect width="10" height="3" x="135" y="42" fill="#E1E3EB" rx="1.5"/>
            <path fill="#D4D6DE" d="M108 38H202V39H108z" transform="matrix(1 0 0 -1 0 77)"/>
            <path fill="#428EE6" d="M108 38H130V39H108z" transform="matrix(1 0 0 -1 0 77)"/>
            <path fill="#428EE6" d="M59 31H73V34H59z"/>
            <path fill="#0F0F0F" d="M226 1c4.418 0 8 3.582 8 8v132c0 4.418-3.582 8-8 8H32c-4.418 0-8-3.582-8-8V9c0-4.418 3.582-8 8-8h194zm0 11H32v124h194V12z"/>
            <path fill="#D6D6D8" d="M1 144L257 144 258 145.5 0 145.5z"/>
            <path fill="url(#prefix__h)" d="M.86 144H59c.552 0 1 .448 1 1v.5H0l.386-1.158c.068-.204.26-.342.474-.342z"/>
            <path fill="url(#prefix__h)" d="M198 144h59c.552 0 1 .448 1 1v.5h-59.14c-.215 0-.406-.138-.474-.342L198 144z" transform="rotate(-180 228 144.75)"/>
            <path fill="#7A7880" d="M30.117 150.5h197.766c6.306.009 11.977-.405 17.014-1.241 5.037-.837 9.405-2.09 13.103-3.759H0c3.721 1.673 8.085 2.926 13.09 3.757 5.007.83 10.682 1.245 17.027 1.243z"/>
            <path fill="#D6D6D8" d="M103.5 144h51v1.32c-1.02.587-2.38.88-4.08.88h-42.84c-1.7 0-3.06-.293-4.08-.88V144z"/>
            <path fill="url(#prefix__i)" d="M104 144h50v1.333c-1 .445-2.333.667-4 .667h-42c-1.667 0-3-.222-4-.667V144z"/>
        </g>
        <g transform="translate(0 19)">
            <path fill="#74737E" d="M8 0h40c4.418 0 8 3.582 8 8v95c0 4.418-3.582 8-8 8H8c-4.418 0-8-3.582-8-8V8c0-4.418 3.582-8 8-8z"/>
            <path fill="#0F0F0F" d="M8 1h40c3.866 0 7 3.134 7 7v95c0 3.866-3.134 7-7 7H8c-3.866 0-7-3.134-7-7V8c0-3.866 3.134-7 7-7z"/>
            <path fill="#FFF" d="M8 3h6c.38.007.641.087.783.242.142.155.214.407.217.758.017.843.309 1.55.875 2.119.566.569 1.275.863 2.125.881h20.003c.802-.009 1.491-.286 2.067-.831.575-.546.885-1.269.93-2.169-.01-.264.082-.498.277-.7.195-.202.436-.302.723-.3h6c2.761 0 5 2.239 5 5v95c0 2.761-2.239 5-5 5H8c-2.761 0-5-2.239-5-5V8c0-2.761 2.239-5 5-5z"/>
            <path fill="#D4D6DE" fill-rule="nonzero" d="M49 26c.552 0 1 .448 1 1v6c0 .552-.448 1-1 1H7c-.552 0-1-.448-1-1v-6c0-.552.448-1 1-1h42zm0 1H7v6h42v-6z"/>
            <path fill="#2D74C8" d="M9 11h13c.552 0 1 .448 1 1v1c0 .552-.448 1-1 1H9c-.552 0-1-.448-1-1v-1c0-.552.448-1 1-1z"/>
            <path fill="#4FC090" d="M47.5 83v13h-4V83h4zm-14-5v18h-4V78h4zm-7-4v22h-4V74h4zm-7 8v14h-4V82h4zm-7 10v4h-4v-4h4zm28-4v8h-4v-8h4z"/>
            <path fill="#C8CAD2" d="M17.5 99c.828 0 1.5.672 1.5 1.5s-.672 1.5-1.5 1.5h-7c-.828 0-1.5-.672-1.5-1.5s.672-1.5 1.5-1.5h7zm14 0c.828 0 1.5.672 1.5 1.5s-.672 1.5-1.5 1.5h-7c-.828 0-1.5-.672-1.5-1.5s.672-1.5 1.5-1.5h7zm14 0c.828 0 1.5.672 1.5 1.5s-.672 1.5-1.5 1.5h-7c-.828 0-1.5-.672-1.5-1.5s.672-1.5 1.5-1.5h7z"/>
            <path fill="#D4D6DE" d="M6 96H50V97H6z" transform="matrix(1 0 0 -1 0 193)"/>
            <path fill="#428EE6" d="M8.5 49v13h4V49h-4zm14-5v18h4V44h-4zm7-4v22h4V40h-4zm7 8v14h4V48h-4zm7 10v4h4v-4h-4zm-28-4v8h4v-8h-4z"/>
            <path fill="#C8CAD2" d="M38.5 65c-.828 0-1.5.672-1.5 1.5s.672 1.5 1.5 1.5h7c.828 0 1.5-.672 1.5-1.5s-.672-1.5-1.5-1.5h-7zm-14 0c-.828 0-1.5.672-1.5 1.5s.672 1.5 1.5 1.5h7c.828 0 1.5-.672 1.5-1.5s-.672-1.5-1.5-1.5h-7zm-14 0c-.828 0-1.5.672-1.5 1.5s.672 1.5 1.5 1.5h7c.828 0 1.5-.672 1.5-1.5s-.672-1.5-1.5-1.5h-7z"/>
            <path fill="#D4D6DE" d="M6 62H50V63H6z" transform="rotate(180 28 62.5)"/>
            <path fill="#9E9DA6" d="M8 21H16V24H8z"/>
            <path fill="#74737E" d="M34 11h13c.552 0 1 .448 1 1v1c0 .552-.448 1-1 1H34c-.552 0-1-.448-1-1v-1c0-.552.448-1 1-1z"/>
            <rect width="18" height="2" x="9" y="29" fill="#C0C0C4" rx="1" transform="rotate(-180 18 30)"/>
            <path fill="#D4D6DE" d="M3 16H53V17H3z" transform="matrix(1 0 0 -1 0 33)"/>
            <path fill="#2D74C8" d="M3 16H28V17H3z" transform="matrix(1 0 0 -1 0 33)"/>
            <circle cx="45.5" cy="30" r="1.5" fill="#C0C0C4"/>
        </g>
    </g>
</svg>
