<svg id="GD001" height="512" viewBox="0 0 512 512" width="512" xmlns="http://www.w3.org/2000/svg" xmlns:xlink="http://www.w3.org/1999/xlink"><linearGradient id="New_Gradient_Swatch_2" gradientUnits="userSpaceOnUse" x1="64" x2="64" y1="46.926" y2="418.342"><stop offset="0" stop-color="#fc5c7d"/><stop offset=".129" stop-color="#f35e85"/><stop offset=".343" stop-color="#d9659b"/><stop offset=".616" stop-color="#b070bf"/><stop offset=".934" stop-color="#777ff0"/><stop offset="1" stop-color="#6a82fb"/></linearGradient><linearGradient id="New_Gradient_Swatch_2-2" x1="96" x2="96" xlink:href="#New_Gradient_Swatch_2" y1="46.926" y2="418.342"/><linearGradient id="New_Gradient_Swatch_2-3" x1="128" x2="128" xlink:href="#New_Gradient_Swatch_2" y1="46.926" y2="418.342"/><linearGradient id="New_Gradient_Swatch_2-4" x1="256" x2="256" xlink:href="#New_Gradient_Swatch_2" y1="46.926" y2="418.342"/><linearGradient id="New_Gradient_Swatch_2-6" x1="288" x2="288" xlink:href="#New_Gradient_Swatch_2" y1="46.926" y2="418.342"/><linearGradient id="New_Gradient_Swatch_2-8" x1="352" x2="352" xlink:href="#New_Gradient_Swatch_2" y1="46.926" y2="418.342"/><linearGradient id="New_Gradient_Swatch_2-9" x1="416" x2="416" xlink:href="#New_Gradient_Swatch_2" y1="46.926" y2="418.342"/><linearGradient id="New_Gradient_Swatch_2-10" x1="400" x2="400" xlink:href="#New_Gradient_Swatch_2" y1="46.926" y2="418.342"/><linearGradient id="New_Gradient_Swatch_2-12" x1="152" x2="152" xlink:href="#New_Gradient_Swatch_2" y1="46.926" y2="418.342"/><path d="m56 80h16v16h-16z" fill="url(#New_Gradient_Swatch_2)"/><path d="m88 80h16v16h-16z" fill="url(#New_Gradient_Swatch_2-2)"/><path d="m120 80h16v16h-16z" fill="url(#New_Gradient_Swatch_2-3)"/><path d="m472 352h-432v-224h256v-16h-256v-32a16.019 16.019 0 0 1 16-16h240v-16h-240a32.036 32.036 0 0 0 -32 32v320a32.036 32.036 0 0 0 32 32h141.058l-4.358 48h-24.7v16h176v-16h-24.695l-4.363-48h141.058a32.036 32.036 0 0 0 32-32v-168h-16zm-168.76 128h-94.48l4.364-48h85.752zm152.76-64h-400a16.019 16.019 0 0 1 -16-16v-32h432v32a16.019 16.019 0 0 1 -16 16z" fill="url(#New_Gradient_Swatch_2-4)"/><path d="m248 384h16v16h-16z" fill="url(#New_Gradient_Swatch_2-4)"/><path d="m304 280h-32a8 8 0 0 0 -8 8v32a8 8 0 0 0 8 8h32a8 8 0 0 0 8-8v-32a8 8 0 0 0 -8-8zm-8 32h-16v-16h16z" fill="url(#New_Gradient_Swatch_2-6)"/><path d="m264 224v32a8 8 0 0 0 8 8h32a8 8 0 0 0 8-8v-32a8 8 0 0 0 -8-8h-32a8 8 0 0 0 -8 8zm16 8h16v16h-16z" fill="url(#New_Gradient_Swatch_2-6)"/><path d="m368 328a8 8 0 0 0 8-8v-32a8 8 0 0 0 -8-8h-32a8 8 0 0 0 -8 8v32a8 8 0 0 0 8 8zm-24-32h16v16h-16z" fill="url(#New_Gradient_Swatch_2-8)"/><path d="m432 328a8 8 0 0 0 8-8v-32a8 8 0 0 0 -8-8h-32a8 8 0 0 0 -8 8v32a8 8 0 0 0 8 8zm-24-32h16v16h-16z" fill="url(#New_Gradient_Swatch_2-9)"/><path d="m482.3 40.337-80-24a8 8 0 0 0 -4.6 0l-80 24a8 8 0 0 0 -5.7 7.663v110.557a87.522 87.522 0 0 0 48.645 78.71l35.777 17.888a8 8 0 0 0 7.156 0l35.777-17.888a87.522 87.522 0 0 0 48.645-78.71v-110.557a8 8 0 0 0 -5.7-7.663zm-10.3 118.22a71.608 71.608 0 0 1 -39.8 64.4l-32.2 16.1-32.2-16.1a71.608 71.608 0 0 1 -39.8-64.4v-104.605l72-21.6 72 21.6z" fill="url(#New_Gradient_Swatch_2-10)"/><path d="m397.7 49.747-48 14.4a8 8 0 0 0 -5.7 7.663v86.749a55.694 55.694 0 0 0 30.957 50.088l21.466 10.732a7.993 7.993 0 0 0 7.154 0l21.466-10.732a55.694 55.694 0 0 0 30.957-50.089v-86.749a8 8 0 0 0 -5.7-7.663l-48-14.4a7.982 7.982 0 0 0 -4.6.001zm-5.7 18.414v51.839h-32v-42.239zm-32 90.4v-22.561h32v63.279l-9.889-4.944a39.782 39.782 0 0 1 -22.111-35.777zm57.889 35.777-9.889 4.941v-63.279h32v22.558a39.782 39.782 0 0 1 -22.111 35.777zm22.111-74.338h-32v-51.839l32 9.6z" fill="url(#New_Gradient_Swatch_2-10)"/><path d="m64 240a88 88 0 1 0 88-88 88.1 88.1 0 0 0 -88 88zm88-72v24a8 8 0 0 0 3.562 6.656l22.238 14.822 5.567 11.136-5.686 17.061-16.494 5.5-20.744-13.829a8 8 0 0 0 -4.443-1.346h-16a8 8 0 0 0 -7.155 4.422l-6.808 13.616-22.78 11.393a72.018 72.018 0 0 1 68.743-93.431zm-18.312 141.633 14.4-14.409 27.59-6.9 18.647 6.216 1.33 2.658a71.855 71.855 0 0 1 -61.97 12.433zm90.312-69.633a71.658 71.658 0 0 1 -16.283 45.545l-.563-1.125a8 8 0 0 0 -4.624-4.009l-24-8a8.01 8.01 0 0 0 -4.47-.172l-32 8a8 8 0 0 0 -3.718 2.105l-20.831 20.839a72.511 72.511 0 0 1 -27.778-27.1l25.845-12.926a8 8 0 0 0 3.577-3.577l5.789-11.58h8.634l21.984 14.656a8 8 0 0 0 6.968.933l24-8a8 8 0 0 0 5.06-5.059l8-24a8 8 0 0 0 -.435-6.108l-8-16a7.994 7.994 0 0 0 -2.717-3.078l-20.438-13.625v-17.9a72.111 72.111 0 0 1 56 70.181z" fill="url(#New_Gradient_Swatch_2-12)"/></svg>