<svg id="GD001" height="512" viewBox="0 0 512 512" width="512" xmlns="http://www.w3.org/2000/svg" xmlns:xlink="http://www.w3.org/1999/xlink"><linearGradient id="New_Gradient_Swatch_2" gradientUnits="userSpaceOnUse" x1="157.171" x2="157.171" y1="29.097" y2="414.051"><stop offset="0" stop-color="#fc5c7d"/><stop offset=".129" stop-color="#f35e85"/><stop offset=".343" stop-color="#d9659b"/><stop offset=".616" stop-color="#b070bf"/><stop offset=".934" stop-color="#777ff0"/><stop offset="1" stop-color="#6a82fb"/></linearGradient><linearGradient id="New_Gradient_Swatch_2-2" x1="192" x2="192" xlink:href="#New_Gradient_Swatch_2" y1="29.097" y2="414.051"/><linearGradient id="New_Gradient_Swatch_2-3" x1="208" x2="208" xlink:href="#New_Gradient_Swatch_2" y1="29.097" y2="414.051"/><linearGradient id="New_Gradient_Swatch_2-4" x1="176" x2="176" xlink:href="#New_Gradient_Swatch_2" y1="29.097" y2="414.051"/><linearGradient id="New_Gradient_Swatch_2-6" x1="384" x2="384" xlink:href="#New_Gradient_Swatch_2" y1="29.097" y2="414.051"/><linearGradient id="New_Gradient_Swatch_2-7" x1="320" x2="320" xlink:href="#New_Gradient_Swatch_2" y1="29.097" y2="414.051"/><linearGradient id="New_Gradient_Swatch_2-8" x1="184" x2="184" xlink:href="#New_Gradient_Swatch_2" y1="29.097" y2="414.051"/><linearGradient id="New_Gradient_Swatch_2-9" x1="216" x2="216" xlink:href="#New_Gradient_Swatch_2" y1="29.097" y2="414.051"/><linearGradient id="New_Gradient_Swatch_2-10" x1="248" x2="248" xlink:href="#New_Gradient_Swatch_2" y1="29.097" y2="414.051"/><linearGradient id="New_Gradient_Swatch_2-11" x1="408" x2="408" xlink:href="#New_Gradient_Swatch_2" y1="29.097" y2="414.051"/><linearGradient id="New_Gradient_Swatch_2-12" x1="336" x2="336" xlink:href="#New_Gradient_Swatch_2" y1="29.097" y2="414.051"/><linearGradient id="New_Gradient_Swatch_2-15" x1="368" x2="368" xlink:href="#New_Gradient_Swatch_2" y1="29.097" y2="414.051"/><path d="m256 144h-128a40.045 40.045 0 0 0 -40 40v104h-24a32.036 32.036 0 0 0 -32 32v68.686l-13.657 13.657 11.314 11.314 16-16a8 8 0 0 0 2.343-5.657v-72a16.019 16.019 0 0 1 16-16h24v20.686l-13.657 13.657 11.314 11.314 36-36a8.97 8.97 0 1 1 12.686 12.686l-36 36a8 8 0 0 0 0 11.314 37.3 37.3 0 0 1 0 52.686l-40 40 11.314 11.314 18.481-18.481a40.044 40.044 0 0 0 39.862 36.824h128a40.045 40.045 0 0 0 40-40v-272a40.045 40.045 0 0 0 -40-40zm24 312a24.028 24.028 0 0 1 -24 24h-128a24.028 24.028 0 0 1 -24-24v-12.686l5.657-5.657a53.343 53.343 0 0 0 5.233-69.233l30.767-30.767a24.971 24.971 0 1 0 -35.314-35.314l-6.343 6.343v-124.686a24.028 24.028 0 0 1 24-24h128a24.028 24.028 0 0 1 24 24z" fill="url(#New_Gradient_Swatch_2)"/><path d="m184 448h16v16h-16z" fill="url(#New_Gradient_Swatch_2-2)"/><path d="m200 176h16v16h-16z" fill="url(#New_Gradient_Swatch_2-3)"/><path d="m168 176h16v16h-16z" fill="url(#New_Gradient_Swatch_2-4)"/><path d="m200 281.045v-9.045h-16v9.045a22.834 22.834 0 0 0 -3.379 42.21l15.6 7.8a6.833 6.833 0 0 1 -3.054 12.945h-2.334a6.84 6.84 0 0 1 -6.833-6.833v-1.167h-16v1.167a22.875 22.875 0 0 0 16 21.788v9.045h16v-9.045a22.834 22.834 0 0 0 3.379-42.21l-15.6-7.8a6.833 6.833 0 0 1 3.054-12.945h2.334a6.84 6.84 0 0 1 6.833 6.833v1.167h16v-1.167a22.875 22.875 0 0 0 -16-21.788z" fill="url(#New_Gradient_Swatch_2-2)"/><path d="m360 192v1.167a22.875 22.875 0 0 0 16 21.788v9.045h16v-9.045a22.834 22.834 0 0 0 3.379-42.21l-15.6-7.8a6.833 6.833 0 0 1 3.054-12.945h2.334a6.84 6.84 0 0 1 6.833 6.833v1.167h16v-1.167a22.875 22.875 0 0 0 -16-21.788v-9.045h-16v9.045a22.834 22.834 0 0 0 -3.379 42.21l15.6 7.8a6.833 6.833 0 0 1 -3.054 12.945h-2.334a6.84 6.84 0 0 1 -6.833-6.833v-1.167z" fill="url(#New_Gradient_Swatch_2-6)"/><path d="m464 16h-288a32.036 32.036 0 0 0 -32 32v80h16v-32h320v272a16.019 16.019 0 0 1 -16 16h-152v16h152a32.036 32.036 0 0 0 32-32v-320a32.036 32.036 0 0 0 -32-32zm-304 64v-32a16.019 16.019 0 0 1 16-16h288a16.019 16.019 0 0 1 16 16v32z" fill="url(#New_Gradient_Swatch_2-7)"/><path d="m176 48h16v16h-16z" fill="url(#New_Gradient_Swatch_2-8)"/><path d="m208 48h16v16h-16z" fill="url(#New_Gradient_Swatch_2-9)"/><path d="m240 48h16v16h-16z" fill="url(#New_Gradient_Swatch_2-10)"/><path d="m360 248h96v16h-96z" fill="url(#New_Gradient_Swatch_2-11)"/><path d="m328 248h16v16h-16z" fill="url(#New_Gradient_Swatch_2-12)"/><path d="m312 280h144v16h-144z" fill="url(#New_Gradient_Swatch_2-6)"/><path d="m312 312h144v16h-144z" fill="url(#New_Gradient_Swatch_2-6)"/><path d="m312 344h112v16h-112z" fill="url(#New_Gradient_Swatch_2-15)"/></svg>