<svg clip-rule="evenodd" fill-rule="evenodd" height="512" image-rendering="optimizeQuality" shape-rendering="geometricPrecision" text-rendering="geometricPrecision" viewBox="0 0 4000 4000" width="512" xmlns="http://www.w3.org/2000/svg"><g id="Layer_x0020_1"><g fill-rule="nonzero"><path d="m1206 3333h-134v-2666h134z" fill="#d1d8de"/><path d="m2660 3333h-1490v-2666h1886v2271z" fill="#eff2f4"/><path d="m944 1731v-779l128 126v780z" fill="#f05609"/><path d="m2660 2938h396l-396 395z" fill="#d1d8de"/><path d="m944 1731v-779h1405v779z" fill="#ff671b"/><path d="m1289 1328h70c19 0 32-4 41-12s13-21 13-39c0-17-4-29-13-38-8-9-21-13-38-13h-73v101zm0 63v124h-72v-350h155c37 0 64 10 83 29s28 47 28 84c0 36-9 64-28 83-18 20-45 29-79 29h-88zm325-63h70c19 0 32-4 41-12s13-21 13-39c0-17-4-29-13-38-8-9-21-13-38-13h-73v101zm0 63v124h-72v-350h155c37 0 64 10 83 29s28 47 28 84c0 36-9 64-28 83-18 20-45 29-79 29h-88zm325 124v-287h-104v-62h279v62h-103v287z" fill="#fff"/></g><g id="_397090824"><path d="m1722 2141h795v778h-795z" fill="#ff671b"/><path d="m1791 2208h657v643h-657z" fill="#fff"/><path d="m1886 2338h467v383h-467z" fill="#ff671b"/><g fill="#fff"><path d="m1921 2378h397v50h-397z"/><path d="m2020 2470c-55 0-99 43-99 97s44 97 99 97 99-43 99-97h-99z"/><path d="m2166 2477h152v29h-152z"/><path d="m2166 2538h152v29h-152z"/><path d="m2166 2600h152v28h-152z"/></g></g></g></svg>