<?xml version="1.0" encoding="utf-8"?>
<!-- Generator: Adobe Illustrator 24.3.0, SVG Export Plug-In . SVG Version: 6.00 Build 0)  -->
<svg version="1.1" id="Layer_1" xmlns="http://www.w3.org/2000/svg" xmlns:xlink="http://www.w3.org/1999/xlink" x="0px" y="0px"
	 width="393.7px" height="332.7px" viewBox="0 0 393.7 332.7" style="enable-background:new 0 0 393.7 332.7;" xml:space="preserve"
	>
<g>
	<g>
		<g>
			<g>
				<path d="M67,150.3c-2.5,0-4.6-2.1-4.6-4.6s2.1-4.6,4.6-4.6c32.2,0,58.3-26.2,58.3-58.3c0-2.5,2.1-4.6,4.6-4.6
					c2.5,0,4.6,2.1,4.6,4.6c0,18.1-7,35-19.8,47.8C102,143.3,85.1,150.3,67,150.3z"/>
			</g>
			<g>
				<path d="M155.2,150.3c-18.1,0-35-7-47.8-19.8c-12.8-12.8-19.8-29.7-19.8-47.8c0-2.5,2.1-4.6,4.6-4.6c2.5,0,4.6,2.1,4.6,4.6
					c0,32.2,26.2,58.3,58.3,58.3c2.5,0,4.6,2.1,4.6,4.6S157.8,150.3,155.2,150.3z"/>
			</g>
		</g>
		<g>
			<g>
				<path d="M155.2,87.3H67c-2.5,0-4.6-2.1-4.6-4.6c0-2.5,2.1-4.6,4.6-4.6h88.2c2.5,0,4.6,2.1,4.6,4.6
					C159.8,85.3,157.8,87.3,155.2,87.3z"/>
			</g>
			<g>
				<path d="M111.1,87.3c-2.5,0-4.6-2.1-4.6-4.6V59.4c0-2.5,2.1-4.6,4.6-4.6s4.6,2.1,4.6,4.6v23.3C115.7,85.3,113.6,87.3,111.1,87.3
					z"/>
			</g>
		</g>
	</g>
	<g>
		<g>
			<g>
				<path d="M243.6,277.3c-0.6,0-1.2-0.1-1.7-0.3c-2.4-0.9-3.5-3.6-2.6-6l34.4-86.4c0.9-2.4,3.6-3.5,6-2.6c2.4,0.9,3.5,3.6,2.6,6
					l-34.4,86.4C247.2,276.2,245.5,277.3,243.6,277.3z"/>
			</g>
			<g>
				<path d="M312.6,277.3c-1.8,0-3.6-1.1-4.3-2.9L273.9,188c-0.9-2.4,0.2-5,2.6-6c2.4-0.9,5,0.2,6,2.6l34.4,86.4
					c0.9,2.4-0.2,5-2.6,6C313.7,277.2,313.1,277.3,312.6,277.3L312.6,277.3z"/>
			</g>
		</g>
		<g>
			<path d="M300.1,246h-44c-2.5,0-4.6-2.1-4.6-4.6s2.1-4.6,4.6-4.6h44c2.5,0,4.6,2.1,4.6,4.6S302.6,246,300.1,246z"/>
		</g>
	</g>
	<g>
		<path d="M205.2,206.5H17c-9.4,0-17-7.6-17-17V17C0,7.6,7.6,0,17,0h188.2c9.4,0,17,7.6,17,17v172.5
			C222.2,198.8,214.5,206.5,205.2,206.5z M212.2,121.3V17c0-3.9-3.1-7-7-7H17c-3.9,0-7,3.1-7,7v172.5c0,3.9,3.1,7,7,7h188.2
			c3.9,0,7-3.1,7-7V121.3"/>
	</g>
	<g>
		<path d="M376.7,126.3h-161c-0.2,3.3,0,6.7,0.4,10h160.7c3.9,0,7,3.1,7,7v172.5c0,3.9-3.1,7-7,7H188.5c-3.9,0-7-3.1-7-7V198
			c-1.8,0-3.5-0.1-5.3,0c-1.6,0-3.1,0-4.7,0.1v117.7c0,9.4,7.6,17,17,17h188.2c9.4,0,17-7.6,17-17V143.3
			C393.7,133.9,386.1,126.3,376.7,126.3z"/>
	</g>
</g>
</svg>
