<?xml version="1.0"?>
<svg xmlns="http://www.w3.org/2000/svg" viewBox="0 0 64 64" width="512" height="512"><g id="Social_media" data-name="Social media"><path d="M61.994,33.24a4.83,4.83,0,0,0-1.368-3.585A5.351,5.351,0,0,0,56.774,28H45.234a1,1,0,0,1-.993-1.11l1.013-9.117A7,7,0,0,0,38.3,10H38a3,3,0,0,0-3,3v4A11.013,11.013,0,0,1,24,28H22V25a1,1,0,0,0-1-1H3a1,1,0,0,0-1,1V61a1,1,0,0,0,1,1H21a1,1,0,0,0,1-1V59.016A17.062,17.062,0,0,0,31.609,62H50a4.994,4.994,0,0,0,4.994-4.76A4.821,4.821,0,0,0,53.659,53.7a5.074,5.074,0,0,0,1.883-1.165A5.006,5.006,0,0,0,57,49a4.949,4.949,0,0,0-1.1-3.088A4.978,4.978,0,0,0,60,41a4.958,4.958,0,0,0-1.289-3.319,4.927,4.927,0,0,0,3.283-4.441ZM20,60H4V26H20V60ZM59.128,35.118A3.018,3.018,0,0,1,57,36H48a1,1,0,0,0,0,2h7a3,3,0,1,1,0,6H48a1,1,0,0,0,0,2h4a3,3,0,1,1,0,6H48a1,1,0,0,0,0,2h1.774a3.34,3.34,0,0,1,2.405,1.035A2.849,2.849,0,0,1,53,57.144,2.993,2.993,0,0,1,50,60H31.609a15.055,15.055,0,0,1-9.4-3.31L22,56.521V30h2A13.015,13.015,0,0,0,37,17V13a1,1,0,0,1,1-1h.3a5,5,0,0,1,4.969,5.552l-1.013,9.116A3,3,0,0,0,45.234,30h11.54a3.34,3.34,0,0,1,2.405,1.035A2.849,2.849,0,0,1,60,33.144,3.023,3.023,0,0,1,59.128,35.118Z"/><path d="M12,36a4,4,0,1,1,4-4A4,4,0,0,1,12,36Zm0-6a2,2,0,1,0,2,2A2,2,0,0,0,12,30Z"/></g></svg>
