<svg enable-background="new 0 0 520 520" height="512" viewBox="0 0 520 520" width="512" xmlns="http://www.w3.org/2000/svg"><g id="_x36_38_x2C__Player_x2C__Film_x2C__Movie_x2C__Video"><g><path d="m490 60h-460c-5.523 0-10 4.477-10 10v380c0 5.522 4.477 10 10 10h460c5.522 0 10-4.478 10-10 0-9.266 0-368.674 0-380 0-5.523-4.478-10-10-10zm-450 20h440v260h-440zm440 360h-440v-80h440z"/><path d="m344.902 201.284-160-90c-6.661-3.743-14.902 1.078-14.902 8.716v180c0 7.618 8.224 12.472 14.903 8.716l160-90c6.778-3.813 6.797-13.608-.001-17.432zm-154.902 81.617v-145.802l129.603 72.901z"/><path d="m70 410h11.72c4.128 11.639 15.244 20 28.28 20s24.152-8.361 28.28-20h311.72c5.522 0 10-4.478 10-10s-4.478-10-10-10h-311.72c-4.128-11.639-15.244-20-28.28-20s-24.152 8.361-28.28 20h-11.72c-5.523 0-10 4.478-10 10s4.478 10 10 10zm40-20c5.514 0 10 4.486 10 10s-4.486 10-10 10c-5.513 0-9.997-4.483-10-9.995 0-.001 0 .004 0-.01.003-5.512 4.487-9.995 10-9.995z"/></g></g></svg>