<svg height="448pt" viewBox="0 0 448 448" width="448pt" xmlns="http://www.w3.org/2000/svg"><path d="m224 448c-123.464844 0-224-100.535156-224-224s100.535156-224 224-224 224 100.535156 224 224-100.535156 224-224 224zm0-426.667969c-111.734375 0-202.667969 90.933594-202.667969 202.667969s90.933594 202.667969 202.667969 202.667969 202.667969-90.933594 202.667969-202.667969-90.933594-202.667969-202.667969-202.667969zm0 0"/><path d="m205.332031 444.398438c-56.796875-59.730469-88-138-88-220.398438s31.203125-160.667969 88-220.398438l15.46875 14.664063c-52.933593 55.734375-82.132812 128.800781-82.132812 205.734375s29.199219 150 82.132812 205.734375zm0 0"/><path d="m242.398438 444.398438-15.464844-14.664063c52.933594-55.734375 82.132812-128.800781 82.132812-205.734375s-29.199218-150-82.132812-205.734375l15.464844-14.664063c56.800781 59.730469 88 138 88 220.398438s-31.199219 160.667969-88 220.398438zm0 0"/><path d="m389.332031 359.601562c-45.332031-32.402343-104-50.269531-165.332031-50.269531s-120 17.867188-165.332031 50.269531l-12.402344-17.335937c48.933594-34.933594 112-54.132813 177.734375-54.132813s128.800781 19.199219 177.734375 54.132813zm0 0"/><path d="m224 160c-65.734375 0-128.800781-19.199219-177.734375-54.132812l12.402344-17.332032c45.332031 32.398438 104 50.265625 165.332031 50.265625s120-17.867187 165.332031-50.265625l12.402344 17.332032c-48.933594 34.933593-112 54.132812-177.734375 54.132812zm0 0"/></svg>